<?xml version="1.0" encoding="UTF-8"?>
<svg id="Layer_1" data-name="Layer 1" xmlns="http://www.w3.org/2000/svg" viewBox="0 0 500 169.04">
  <defs>
    <style>
      .cls-1 {
        fill: none;
      }

      .cls-2 {
        fill: #5ec095;
      }

      .cls-3 {
        fill: #0c3320;
      }
    </style>
  </defs>
  <g>
    <path class="cls-3" d="M115.9,73.92c-1.58,0-2.8.31-3.67.94-.87.62-1.3,1.56-1.3,2.81,0,1.15.63,2.16,1.9,3.03,1.26.87,2.95,1.7,5.05,2.49,1.71.62,3.17,1.34,4.38,2.14,1.21.8,2.22,1.91,3.03,3.32.8,1.41,1.21,3.2,1.21,5.37,0,1.87-.48,3.6-1.45,5.19-.97,1.59-2.39,2.86-4.26,3.79s-4.1,1.4-6.7,1.4c-2.17,0-4.32-.32-6.45-.96-2.13-.64-4.12-1.62-5.96-2.93l3.15-5.56c1.25.92,2.68,1.67,4.28,2.27,1.61.59,3.05.89,4.33.89,1.51,0,2.82-.32,3.94-.96,1.12-.64,1.67-1.68,1.67-3.13,0-1.87-1.76-3.5-5.27-4.87-2.07-.82-3.79-1.61-5.17-2.36-1.38-.75-2.57-1.84-3.57-3.25-1-1.41-1.5-3.18-1.5-5.32,0-3.12,1.03-5.63,3.08-7.53,2.05-1.9,4.78-2.94,8.2-3.1,2.69,0,4.94.3,6.75.91,1.81.61,3.56,1.47,5.27,2.59l-2.71,5.47c-3.15-1.74-5.89-2.61-8.22-2.61Z"/>
    <path class="cls-2" d="M146.13,104.01l16.35-37.67h.39l16.35,37.67h-33.09Z"/>
    <path class="cls-3" d="M221.53,67.77v6.89h-8.81v29.35h-7.14v-29.35h-8.47v-6.89h24.42Z"/>
    <path class="cls-3" d="M267.92,67.77v6.89h-17.58v7.73h15.56v6.89h-15.56v7.83h18.27v6.89h-25.41v-36.24h24.72Z"/>
    <path class="cls-3" d="M297.9,67.77v29.35h17.04v6.89h-24.18v-36.24h7.14Z"/>
    <path class="cls-3" d="M344.24,67.77v29.35h17.04v6.89h-24.18v-36.24h7.14Z"/>
    <path class="cls-3" d="M390.57,67.77v36.24h-7.14v-36.24h7.14Z"/>
    <path class="cls-3" d="M436.66,67.77v6.89h-8.81v29.35h-7.14v-29.35h-8.47v-6.89h24.42Z"/>
    <path class="cls-3" d="M483.05,67.77v6.89h-17.58v7.73h15.56v6.89h-15.56v7.83h18.27v6.89h-25.41v-36.24h24.72Z"/>
  </g>
  <g>
    <polygon class="cls-2" points="39.79 73.15 27.53 69.73 20.95 83.21 29.61 89.44 45.83 98.05 39.79 73.15"/>
    <g>
      <polygon class="cls-3" points="60.14 85.26 60.14 109.5 41.55 120.56 38.02 122.67 19.43 133.73 19.43 109.5 36.33 99.44 38.02 98.43 39.79 97.38 39.79 73.15 43.24 75.2 60.14 85.26"/>
      <polygon class="cls-3" points="60.14 37.89 60.14 61.03 43.24 71.09 41.55 72.09 39.79 73.15 36.33 75.2 22.88 83.21 19.43 85.26 19.43 61.03 38.02 50.46 41.55 48.45 60.14 37.89"/>
      <polygon class="cls-3" points="39.79 93.27 39.79 97.38 19.43 85.26 22.88 83.21 39.79 93.27"/>
    </g>
    <polygon class="cls-2" points="42.03 124.35 42.03 140.65 37.54 143.21 37.54 126.91 42.03 124.35"/>
    <polygon class="cls-2" points="42.03 27.82 42.03 44.12 37.54 46.67 37.54 30.37 42.03 27.82"/>
    <line class="cls-1" x1="52.32" y1="123.08" x2="50.61" y2="124.06"/>
    <line class="cls-1" x1="46.11" y1="126.61" x2="45.21" y2="127.12"/>
  </g>
</svg>