<?xml version="1.0" encoding="UTF-8"?>
<svg id="Layer_1" data-name="Layer 1" xmlns="http://www.w3.org/2000/svg" viewBox="0 0 243.44 243.44">
  <defs>
    <style>
      .cls-1 {
        fill: none;
      }

      .cls-2 {
        fill: #5ec095;
      }

      .cls-3 {
        fill: #fff;
      }

      .cls-4 {
        fill: #0c3320;
      }
    </style>
  </defs>
  <circle class="cls-2" cx="120.02" cy="122.27" r="101"/>
  <g>
    <polygon class="cls-3" points="120.02 102.4 100.32 96.9 89.76 118.57 103.66 128.59 129.74 142.42 120.02 102.4"/>
    <g>
      <polygon class="cls-4" points="152.73 121.87 152.73 160.82 122.86 178.6 117.18 181.98 87.3 199.77 87.3 160.82 114.47 144.65 117.18 143.04 120.02 141.35 120.02 102.4 125.57 105.71 152.73 121.87"/>
      <polygon class="cls-4" points="152.73 45.74 152.73 82.93 125.57 99.1 122.86 100.71 120.02 102.4 114.47 105.71 92.85 118.57 87.3 121.87 87.3 82.93 117.18 65.95 122.86 62.72 152.73 45.74"/>
      <polygon class="cls-4" points="120.02 134.74 120.02 141.35 87.3 121.87 92.85 118.57 120.02 134.74"/>
    </g>
    <polygon class="cls-3" points="123.63 184.69 123.63 210.88 116.4 214.99 116.4 188.8 123.63 184.69"/>
    <polygon class="cls-3" points="123.63 29.56 123.63 55.75 116.4 59.86 116.4 33.66 123.63 29.56"/>
    <line class="cls-1" x1="140.16" y1="182.65" x2="137.41" y2="184.21"/>
    <line class="cls-1" x1="130.18" y1="188.32" x2="128.73" y2="189.14"/>
  </g>
</svg>