<?xml version="1.0" encoding="UTF-8"?>
<svg id="Layer_1" data-name="Layer 1" xmlns="http://www.w3.org/2000/svg" viewBox="0 0 500 500">
  <defs>
    <style>
      .cls-1 {
        fill: none;
      }

      .cls-2 {
        fill: #5ec095;
      }

      .cls-3 {
        fill: #0c3320;
      }
    </style>
  </defs>
  <g>
    <path class="cls-3" d="M73.27,431.98c-1.58,0-2.8.31-3.67.94-.87.62-1.3,1.56-1.3,2.81,0,1.15.63,2.16,1.9,3.03,1.26.87,2.94,1.7,5.05,2.49,1.71.62,3.17,1.34,4.38,2.14,1.21.8,2.22,1.91,3.03,3.32.8,1.41,1.21,3.2,1.21,5.36,0,1.87-.48,3.6-1.45,5.19-.97,1.59-2.39,2.85-4.26,3.79s-4.1,1.4-6.69,1.4c-2.17,0-4.32-.32-6.45-.96-2.13-.64-4.12-1.62-5.96-2.93l3.15-5.56c1.25.92,2.67,1.67,4.28,2.26,1.61.59,3.05.89,4.33.89,1.51,0,2.82-.32,3.94-.96,1.12-.64,1.67-1.68,1.67-3.13,0-1.87-1.76-3.49-5.27-4.87-2.07-.82-3.79-1.61-5.17-2.36-1.38-.75-2.57-1.84-3.57-3.25-1-1.41-1.5-3.18-1.5-5.32,0-3.12,1.03-5.63,3.08-7.53,2.05-1.9,4.78-2.94,8.2-3.1,2.69,0,4.94.3,6.74.91,1.8.61,3.56,1.47,5.27,2.58l-2.71,5.46c-3.15-1.74-5.89-2.61-8.22-2.61Z"/>
    <path class="cls-2" d="M103.48,462.05l16.34-37.65h.39l16.34,37.65h-33.08Z"/>
    <path class="cls-3" d="M178.86,425.82v6.89h-8.81v29.34h-7.14v-29.34h-8.47v-6.89h24.41Z"/>
    <path class="cls-3" d="M225.22,425.82v6.89h-17.57v7.73h15.55v6.89h-15.55v7.83h18.26v6.89h-25.4v-36.23h24.71Z"/>
    <path class="cls-3" d="M255.2,425.82v29.34h17.03v6.89h-24.17v-36.23h7.14Z"/>
    <path class="cls-3" d="M301.51,425.82v29.34h17.03v6.89h-24.17v-36.23h7.14Z"/>
    <path class="cls-3" d="M347.83,425.82v36.23h-7.14v-36.23h7.14Z"/>
    <path class="cls-3" d="M393.9,425.82v6.89h-8.81v29.34h-7.14v-29.34h-8.47v-6.89h24.41Z"/>
    <path class="cls-3" d="M440.27,425.82v6.89h-17.57v7.73h15.55v6.89h-15.55v7.83h18.26v6.89h-25.4v-36.23h24.71Z"/>
  </g>
  <g>
    <polygon class="cls-2" points="249.98 162.45 214.35 152.51 195.25 191.69 220.39 209.8 267.55 234.81 249.98 162.45"/>
    <g>
      <polygon class="cls-3" points="309.14 197.66 309.14 268.09 255.11 300.25 244.84 306.36 190.81 338.52 190.81 268.09 239.94 238.85 244.84 235.93 249.98 232.88 249.98 162.45 260.01 168.42 309.14 197.66"/>
      <polygon class="cls-3" points="309.14 59.98 309.14 127.23 260.01 156.48 255.11 159.39 249.98 162.45 239.94 168.42 200.85 191.69 190.81 197.66 190.81 127.23 244.84 96.52 255.11 90.69 309.14 59.98"/>
      <polygon class="cls-3" points="249.98 220.93 249.98 232.88 190.81 197.66 200.85 191.69 249.98 220.93"/>
    </g>
    <polygon class="cls-2" points="256.51 311.26 256.51 358.63 243.44 366.05 243.44 318.68 256.51 311.26"/>
    <polygon class="cls-2" points="256.51 30.72 256.51 78.09 243.44 85.51 243.44 38.14 256.51 30.72"/>
    <line class="cls-1" x1="286.4" y1="307.57" x2="281.43" y2="310.4"/>
    <line class="cls-1" x1="268.36" y1="317.82" x2="265.73" y2="319.31"/>
  </g>
  <line class="cls-1" x1="286.4" y1="365.12" x2="281.43" y2="367.95"/>
  <line class="cls-1" x1="268.36" y1="375.37" x2="265.73" y2="376.87"/>
</svg>